<svg width="101" height="53" viewBox="0 0 101 53" fill="none" xmlns="http://www.w3.org/2000/svg">
<path d="M7.93172 11H6.67172V6.33801H1.54772V11H0.28772V1.00401H1.54772V5.23201H6.67172V1.00401H7.93172V11Z" fill="#D5D8F1"/>
<path d="M13.3947 3.35601C14.0387 3.35601 14.5893 3.49601 15.0467 3.77601C15.5133 4.05601 15.868 4.45268 16.1107 4.96601C16.3627 5.47001 16.4887 6.06268 16.4887 6.74401V7.48601H11.3507C11.3693 8.33534 11.584 8.98401 11.9947 9.43201C12.4147 9.87068 12.998 10.09 13.7447 10.09C14.2207 10.09 14.6407 10.048 15.0047 9.96401C15.378 9.87068 15.7607 9.74001 16.1527 9.57201V10.65C15.77 10.818 15.392 10.9393 15.0187 11.014C14.6453 11.098 14.202 11.14 13.6887 11.14C12.9793 11.14 12.3493 10.9953 11.7987 10.706C11.2573 10.4167 10.8327 9.98734 10.5247 9.41801C10.226 8.83934 10.0767 8.13468 10.0767 7.30401C10.0767 6.48268 10.212 5.77801 10.4827 5.19001C10.7627 4.60201 11.15 4.14934 11.6447 3.83201C12.1487 3.51468 12.732 3.35601 13.3947 3.35601ZM13.3807 4.36401C12.7927 4.36401 12.326 4.55534 11.9807 4.93801C11.6447 5.31134 11.444 5.83401 11.3787 6.50601H15.2007C15.1913 5.87134 15.042 5.35801 14.7527 4.96601C14.4633 4.56468 14.006 4.36401 13.3807 4.36401Z" fill="#D5D8F1"/>
<path d="M22.011 3.35601C22.907 3.35601 23.5837 3.57534 24.041 4.01401C24.4984 4.44334 24.727 5.14334 24.727 6.11401V11H23.509V6.19801C23.509 4.99401 22.949 4.39201 21.829 4.39201C20.9984 4.39201 20.4244 4.62534 20.107 5.09201C19.7897 5.55868 19.631 6.23068 19.631 7.10801V11H18.399V3.49601H19.393L19.575 4.51801H19.645C19.8877 4.12601 20.2237 3.83668 20.653 3.65001C21.0824 3.45401 21.535 3.35601 22.011 3.35601Z" fill="#D5D8F1"/>
<path d="M29.7133 11.14C28.78 11.14 28.0333 10.818 27.4733 10.174C26.9133 9.52068 26.6333 8.55001 26.6333 7.26201C26.6333 5.97401 26.9133 5.00334 27.4733 4.35001C28.0426 3.68734 28.794 3.35601 29.7273 3.35601C30.306 3.35601 30.7773 3.46334 31.1413 3.67801C31.5146 3.89268 31.818 4.15401 32.0513 4.46201H32.1353C32.126 4.34068 32.1073 4.16334 32.0793 3.93001C32.0606 3.68734 32.0513 3.49601 32.0513 3.35601V0.360008H33.2833V11H32.2893L32.1073 9.99201H32.0513C31.8273 10.3093 31.5286 10.58 31.1553 10.804C30.782 11.028 30.3013 11.14 29.7133 11.14ZM29.9093 10.118C30.7026 10.118 31.258 9.90334 31.5753 9.47401C31.902 9.03534 32.0653 8.37734 32.0653 7.50001V7.27601C32.0653 6.34268 31.9113 5.62868 31.6033 5.13401C31.2953 4.63001 30.726 4.37801 29.8953 4.37801C29.2326 4.37801 28.7333 4.64401 28.3973 5.17601C28.0706 5.69868 27.9073 6.40334 27.9073 7.29001C27.9073 8.18601 28.0706 8.88134 28.3973 9.37601C28.7333 9.87068 29.2373 10.118 29.9093 10.118Z" fill="#D5D8F1"/>
<path d="M39.1666 3.35601C39.3066 3.35601 39.4559 3.36534 39.6146 3.38401C39.7826 3.39334 39.9273 3.41201 40.0486 3.44001L39.8946 4.57401C39.7733 4.54601 39.6379 4.52268 39.4886 4.50401C39.3486 4.48534 39.2133 4.47601 39.0826 4.47601C38.6999 4.47601 38.3406 4.58334 38.0046 4.79801C37.6686 5.00334 37.3979 5.29734 37.1926 5.68001C36.9966 6.05334 36.8986 6.49201 36.8986 6.99601V11H35.6666V3.49601H36.6746L36.8146 4.86801H36.8706C37.1133 4.45734 37.4259 4.10268 37.8086 3.80401C38.1913 3.50534 38.6439 3.35601 39.1666 3.35601Z" fill="#D5D8F1"/>
<path d="M42.0798 0.682009C42.2665 0.682009 42.4298 0.747342 42.5698 0.878008C42.7191 0.999342 42.7938 1.19534 42.7938 1.46601C42.7938 1.72734 42.7191 1.92334 42.5698 2.05401C42.4298 2.18468 42.2665 2.25001 42.0798 2.25001C41.8745 2.25001 41.7018 2.18468 41.5618 2.05401C41.4218 1.92334 41.3518 1.72734 41.3518 1.46601C41.3518 1.19534 41.4218 0.999342 41.5618 0.878008C41.7018 0.747342 41.8745 0.682009 42.0798 0.682009ZM42.6818 3.49601V11H41.4498V3.49601H42.6818Z" fill="#D5D8F1"/>
<path d="M46.2772 0.360008V5.91801C46.2772 6.06734 46.2678 6.26334 46.2492 6.50601C46.2398 6.74868 46.2305 6.95868 46.2212 7.13601H46.2772C46.3332 7.06134 46.4172 6.95401 46.5292 6.81401C46.6412 6.67401 46.7532 6.53401 46.8652 6.39401C46.9865 6.24468 47.0892 6.12334 47.1732 6.03001L49.5672 3.49601H51.0092L47.9712 6.70201L51.2192 11H49.7352L47.1312 7.50001L46.2772 8.24201V11H45.0592V0.360008H46.2772Z" fill="#D5D8F1"/>
<path d="M64.2664 11H62.7964L57.4484 2.69801H57.3924C57.4111 3.02468 57.4344 3.43068 57.4624 3.91601C57.4904 4.40134 57.5044 4.90068 57.5044 5.41401V11H56.3424V1.00401H57.7984L63.1324 9.27801H63.1884C63.1791 9.12868 63.1651 8.90468 63.1464 8.60601C63.1371 8.30734 63.1231 7.98068 63.1044 7.62601C63.0951 7.27134 63.0904 6.94468 63.0904 6.64601V1.00401H64.2664V11Z" fill="#D5D8F1"/>
<path d="M67.4411 0.682009C67.6278 0.682009 67.7911 0.747342 67.9311 0.878008C68.0805 0.999342 68.1551 1.19534 68.1551 1.46601C68.1551 1.72734 68.0805 1.92334 67.9311 2.05401C67.7911 2.18468 67.6278 2.25001 67.4411 2.25001C67.2358 2.25001 67.0631 2.18468 66.9231 2.05401C66.7831 1.92334 66.7131 1.72734 66.7131 1.46601C66.7131 1.19534 66.7831 0.999342 66.9231 0.878008C67.0631 0.747342 67.2358 0.682009 67.4411 0.682009ZM68.0431 3.49601V11H66.8111V3.49601H68.0431Z" fill="#D5D8F1"/>
<path d="M73.3185 3.35601C73.9625 3.35601 74.5132 3.49601 74.9705 3.77601C75.4372 4.05601 75.7918 4.45268 76.0345 4.96601C76.2865 5.47001 76.4125 6.06268 76.4125 6.74401V7.48601H71.2745C71.2932 8.33534 71.5078 8.98401 71.9185 9.43201C72.3385 9.87068 72.9218 10.09 73.6685 10.09C74.1445 10.09 74.5645 10.048 74.9285 9.96401C75.3018 9.87068 75.6845 9.74001 76.0765 9.57201V10.65C75.6938 10.818 75.3158 10.9393 74.9425 11.014C74.5692 11.098 74.1258 11.14 73.6125 11.14C72.9032 11.14 72.2732 10.9953 71.7225 10.706C71.1812 10.4167 70.7565 9.98734 70.4485 9.41801C70.1498 8.83934 70.0005 8.13468 70.0005 7.30401C70.0005 6.48268 70.1358 5.77801 70.4065 5.19001C70.6865 4.60201 71.0738 4.14934 71.5685 3.83201C72.0725 3.51468 72.6558 3.35601 73.3185 3.35601ZM73.3045 4.36401C72.7165 4.36401 72.2498 4.55534 71.9045 4.93801C71.5685 5.31134 71.3678 5.83401 71.3025 6.50601H75.1245C75.1152 5.87134 74.9658 5.35801 74.6765 4.96601C74.3872 4.56468 73.9298 4.36401 73.3045 4.36401Z" fill="#D5D8F1"/>
<path d="M81.7808 4.44801H79.8908V11H78.6588V4.44801H77.3428V3.87401L78.6588 3.45401V3.02001C78.6588 2.04934 78.8735 1.35401 79.3028 0.934009C79.7322 0.504675 80.3295 0.290009 81.0948 0.290009C81.3935 0.290009 81.6642 0.318008 81.9068 0.374008C82.1588 0.420675 82.3735 0.476676 82.5508 0.542009L82.2288 1.50801C82.0795 1.46134 81.9068 1.41468 81.7108 1.36801C81.5148 1.32134 81.3142 1.29801 81.1088 1.29801C80.6982 1.29801 80.3902 1.43801 80.1848 1.71801C79.9888 1.98868 79.8908 2.41801 79.8908 3.00601V3.49601H81.7808V4.44801Z" fill="#D5D8F1"/>
<path d="M86.0333 3.35601C86.6773 3.35601 87.228 3.49601 87.6853 3.77601C88.152 4.05601 88.5067 4.45268 88.7493 4.96601C89.0013 5.47001 89.1273 6.06268 89.1273 6.74401V7.48601H83.9893C84.008 8.33534 84.2227 8.98401 84.6333 9.43201C85.0533 9.87068 85.6367 10.09 86.3833 10.09C86.8593 10.09 87.2793 10.048 87.6433 9.96401C88.0167 9.87068 88.3993 9.74001 88.7913 9.57201V10.65C88.4087 10.818 88.0307 10.9393 87.6573 11.014C87.284 11.098 86.8407 11.14 86.3273 11.14C85.618 11.14 84.988 10.9953 84.4373 10.706C83.896 10.4167 83.4713 9.98734 83.1633 9.41801C82.8647 8.83934 82.7153 8.13468 82.7153 7.30401C82.7153 6.48268 82.8507 5.77801 83.1213 5.19001C83.4013 4.60201 83.7887 4.14934 84.2833 3.83201C84.7873 3.51468 85.3707 3.35601 86.0333 3.35601ZM86.0193 4.36401C85.4313 4.36401 84.9647 4.55534 84.6193 4.93801C84.2833 5.31134 84.0827 5.83401 84.0173 6.50601H87.8393C87.83 5.87134 87.6807 5.35801 87.3913 4.96601C87.102 4.56468 86.6447 4.36401 86.0193 4.36401Z" fill="#D5D8F1"/>
<path d="M92.2697 11H91.0377V0.360008H92.2697V11Z" fill="#D5D8F1"/>
<path d="M97.3071 11.14C96.3737 11.14 95.6271 10.818 95.0671 10.174C94.5071 9.52068 94.2271 8.55001 94.2271 7.26201C94.2271 5.97401 94.5071 5.00334 95.0671 4.35001C95.6364 3.68734 96.3877 3.35601 97.3211 3.35601C97.8997 3.35601 98.3711 3.46334 98.7351 3.67801C99.1084 3.89268 99.4117 4.15401 99.6451 4.46201H99.7291C99.7197 4.34068 99.7011 4.16334 99.6731 3.93001C99.6544 3.68734 99.6451 3.49601 99.6451 3.35601V0.360008H100.877V11H99.8831L99.7011 9.99201H99.6451C99.4211 10.3093 99.1224 10.58 98.7491 10.804C98.3757 11.028 97.8951 11.14 97.3071 11.14ZM97.5031 10.118C98.2964 10.118 98.8517 9.90334 99.1691 9.47401C99.4957 9.03534 99.6591 8.37734 99.6591 7.50001V7.27601C99.6591 6.34268 99.5051 5.62868 99.1971 5.13401C98.8891 4.63001 98.3197 4.37801 97.4891 4.37801C96.8264 4.37801 96.3271 4.64401 95.9911 5.17601C95.6644 5.69868 95.5011 6.40334 95.5011 7.29001C95.5011 8.18601 95.6644 8.88134 95.9911 9.37601C96.3271 9.87068 96.8311 10.118 97.5031 10.118Z" fill="#D5D8F1"/>
<path d="M21.0476 24.722H24.5056V29.622C23.9643 29.7993 23.4183 29.93 22.8676 30.014C22.317 30.098 21.6916 30.14 20.9916 30.14C19.9556 30.14 19.083 29.9347 18.3736 29.524C17.6643 29.104 17.123 28.5113 16.7496 27.746C16.3856 26.9713 16.2036 26.0567 16.2036 25.002C16.2036 23.9567 16.409 23.0513 16.8196 22.286C17.2303 21.5207 17.8183 20.928 18.5836 20.508C19.3583 20.0787 20.2916 19.864 21.3836 19.864C21.9436 19.864 22.471 19.9153 22.9656 20.018C23.4696 20.1207 23.9363 20.2653 24.3656 20.452L23.8896 21.544C23.535 21.3853 23.1336 21.25 22.6856 21.138C22.247 21.026 21.7896 20.97 21.3136 20.97C20.119 20.97 19.1856 21.3293 18.5136 22.048C17.851 22.7667 17.5196 23.7513 17.5196 25.002C17.5196 25.7953 17.6456 26.5 17.8976 27.116C18.159 27.7227 18.565 28.1987 19.1156 28.544C19.6663 28.88 20.3896 29.048 21.2856 29.048C21.7243 29.048 22.0976 29.0247 22.4056 28.978C22.7136 28.9313 22.9936 28.8753 23.2456 28.81V25.842H21.0476V24.722Z" fill="#D5D8F1"/>
<path d="M33.2492 26.234C33.2492 27.4753 32.9319 28.4367 32.2972 29.118C31.6719 29.7993 30.8225 30.14 29.7492 30.14C29.0865 30.14 28.4939 29.9907 27.9712 29.692C27.4579 29.384 27.0519 28.9407 26.7532 28.362C26.4545 27.774 26.3052 27.0647 26.3052 26.234C26.3052 24.9927 26.6179 24.036 27.2432 23.364C27.8685 22.692 28.7179 22.356 29.7912 22.356C30.4725 22.356 31.0699 22.51 31.5832 22.818C32.1059 23.1167 32.5119 23.5553 32.8012 24.134C33.0999 24.7033 33.2492 25.4033 33.2492 26.234ZM27.5792 26.234C27.5792 27.1207 27.7519 27.8253 28.0972 28.348C28.4519 28.8613 29.0119 29.118 29.7772 29.118C30.5332 29.118 31.0885 28.8613 31.4432 28.348C31.7979 27.8253 31.9752 27.1207 31.9752 26.234C31.9752 25.3473 31.7979 24.652 31.4432 24.148C31.0885 23.644 30.5285 23.392 29.7632 23.392C28.9979 23.392 28.4425 23.644 28.0972 24.148C27.7519 24.652 27.5792 25.3473 27.5792 26.234Z" fill="#D5D8F1"/>
<path d="M38.0998 22.356C38.7438 22.356 39.2944 22.496 39.7518 22.776C40.2184 23.056 40.5731 23.4527 40.8158 23.966C41.0677 24.47 41.1938 25.0627 41.1938 25.744V26.486H36.0558C36.0744 27.3353 36.2891 27.984 36.6998 28.432C37.1198 28.8707 37.7031 29.09 38.4498 29.09C38.9258 29.09 39.3458 29.048 39.7098 28.964C40.0831 28.8707 40.4657 28.74 40.8577 28.572V29.65C40.4751 29.818 40.0971 29.9393 39.7238 30.014C39.3504 30.098 38.9071 30.14 38.3938 30.14C37.6844 30.14 37.0544 29.9953 36.5037 29.706C35.9624 29.4167 35.5378 28.9873 35.2298 28.418C34.9311 27.8393 34.7817 27.1347 34.7817 26.304C34.7817 25.4827 34.9171 24.778 35.1878 24.19C35.4678 23.602 35.8551 23.1493 36.3498 22.832C36.8538 22.5147 37.4371 22.356 38.0998 22.356ZM38.0858 23.364C37.4978 23.364 37.0311 23.5553 36.6858 23.938C36.3498 24.3113 36.1491 24.834 36.0838 25.506H39.9058C39.8964 24.8713 39.7471 24.358 39.4578 23.966C39.1684 23.5647 38.7111 23.364 38.0858 23.364Z" fill="#D5D8F1"/>
<path d="M45.6101 29.132C45.7968 29.132 45.9881 29.118 46.1841 29.09C46.3801 29.0527 46.5388 29.0153 46.6601 28.978V29.916C46.5294 29.9813 46.3428 30.0327 46.1001 30.07C45.8574 30.1167 45.6241 30.14 45.4001 30.14C45.0081 30.14 44.6441 30.0747 44.3081 29.944C43.9814 29.804 43.7154 29.566 43.5101 29.23C43.3048 28.894 43.2021 28.4227 43.2021 27.816V23.448H42.1381V22.86L43.2161 22.37L43.7061 20.774H44.4341V22.496H46.6041V23.448H44.4341V27.788C44.4341 28.2453 44.5414 28.586 44.7561 28.81C44.9801 29.0247 45.2648 29.132 45.6101 29.132Z" fill="#D5D8F1"/>
<path d="M53.0067 30H47.5187V29.188L51.5507 23.448H47.7567V22.496H52.9087V23.42L48.9327 29.048H53.0067V30Z" fill="#D5D8F1"/>
<path d="M59.6249 27.928C59.6249 28.656 59.3542 29.2067 58.8129 29.58C58.2715 29.9533 57.5435 30.14 56.6289 30.14C56.1062 30.14 55.6535 30.098 55.2709 30.014C54.8975 29.93 54.5662 29.8133 54.2769 29.664V28.544C54.5755 28.6933 54.9349 28.8333 55.3549 28.964C55.7842 29.0853 56.2182 29.146 56.6569 29.146C57.2822 29.146 57.7349 29.048 58.0149 28.852C58.2949 28.6467 58.4349 28.376 58.4349 28.04C58.4349 27.8533 58.3835 27.6853 58.2809 27.536C58.1782 27.3867 57.9915 27.2373 57.7209 27.088C57.4595 26.9387 57.0815 26.7707 56.5869 26.584C56.1015 26.3973 55.6862 26.2107 55.3409 26.024C54.9955 25.8373 54.7295 25.6133 54.5429 25.352C54.3562 25.0907 54.2629 24.7547 54.2629 24.344C54.2629 23.7093 54.5195 23.2193 55.0329 22.874C55.5555 22.5287 56.2369 22.356 57.0769 22.356C57.5342 22.356 57.9589 22.4027 58.3509 22.496C58.7522 22.58 59.1255 22.7013 59.4709 22.86L59.0509 23.84C58.7335 23.7093 58.4022 23.5973 58.0569 23.504C57.7115 23.4107 57.3569 23.364 56.9929 23.364C56.4889 23.364 56.1015 23.448 55.8309 23.616C55.5695 23.7747 55.4389 23.994 55.4389 24.274C55.4389 24.4793 55.4995 24.6567 55.6209 24.806C55.7422 24.946 55.9429 25.086 56.2229 25.226C56.5122 25.3567 56.8949 25.5153 57.3709 25.702C57.8469 25.8793 58.2529 26.0613 58.5889 26.248C58.9249 26.4347 59.1815 26.6633 59.3589 26.934C59.5362 27.1953 59.6249 27.5267 59.6249 27.928Z" fill="#D5D8F1"/>
<path d="M63.9441 29.132C64.1307 29.132 64.3221 29.118 64.5181 29.09C64.7141 29.0527 64.8727 29.0153 64.9941 28.978V29.916C64.8634 29.9813 64.6767 30.0327 64.4341 30.07C64.1914 30.1167 63.9581 30.14 63.7341 30.14C63.3421 30.14 62.9781 30.0747 62.6421 29.944C62.3154 29.804 62.0494 29.566 61.8441 29.23C61.6387 28.894 61.5361 28.4227 61.5361 27.816V23.448H60.4721V22.86L61.5501 22.37L62.0401 20.774H62.7681V22.496H64.9381V23.448H62.7681V27.788C62.7681 28.2453 62.8754 28.586 63.0901 28.81C63.3141 29.0247 63.5987 29.132 63.9441 29.132Z" fill="#D5D8F1"/>
<path d="M69.9967 22.356C70.1367 22.356 70.286 22.3653 70.4447 22.384C70.6127 22.3933 70.7573 22.412 70.8787 22.44L70.7247 23.574C70.6033 23.546 70.468 23.5227 70.3187 23.504C70.1787 23.4853 70.0433 23.476 69.9127 23.476C69.53 23.476 69.1707 23.5833 68.8347 23.798C68.4987 24.0033 68.228 24.2973 68.0227 24.68C67.8267 25.0533 67.7287 25.492 67.7287 25.996V30H66.4967V22.496H67.5047L67.6447 23.868H67.7007C67.9433 23.4573 68.256 23.1027 68.6387 22.804C69.0213 22.5053 69.474 22.356 69.9967 22.356Z" fill="#D5D8F1"/>
<path d="M71.2639 29.244C71.2639 28.8987 71.3479 28.656 71.5159 28.516C71.6839 28.376 71.8846 28.306 72.1179 28.306C72.3606 28.306 72.5659 28.376 72.7339 28.516C72.9112 28.656 72.9999 28.8987 72.9999 29.244C72.9999 29.58 72.9112 29.8227 72.7339 29.972C72.5659 30.1213 72.3606 30.196 72.1179 30.196C71.8846 30.196 71.6839 30.1213 71.5159 29.972C71.3479 29.8227 71.2639 29.58 71.2639 29.244Z" fill="#D5D8F1"/>
<path d="M84.5407 22.342C84.5407 23.014 84.354 23.5507 83.9807 23.952C83.6074 24.344 83.1034 24.6053 82.4687 24.736V24.792C83.2714 24.8853 83.8687 25.1373 84.2607 25.548C84.6527 25.9587 84.8487 26.4953 84.8487 27.158C84.8487 27.7367 84.7134 28.2547 84.4427 28.712C84.172 29.16 83.752 29.51 83.1827 29.762C82.6227 30.014 81.8994 30.14 81.0127 30.14C80.49 30.14 80.0047 30.098 79.5567 30.014C79.1087 29.9393 78.6794 29.7993 78.2687 29.594V28.446C78.6887 28.6513 79.1414 28.8147 79.6267 28.936C80.112 29.048 80.5787 29.104 81.0267 29.104C81.9227 29.104 82.5667 28.9313 82.9587 28.586C83.36 28.2313 83.5607 27.746 83.5607 27.13C83.5607 26.5047 83.3134 26.0567 82.8187 25.786C82.3334 25.506 81.6474 25.366 80.7607 25.366H79.7947V24.316H80.7747C81.596 24.316 82.2167 24.1433 82.6367 23.798C83.066 23.4527 83.2807 22.9953 83.2807 22.426C83.2807 21.9407 83.1174 21.5673 82.7907 21.306C82.464 21.0353 82.0207 20.9 81.4607 20.9C80.9194 20.9 80.4574 20.9793 80.0747 21.138C79.692 21.2967 79.314 21.4973 78.9407 21.74L78.3247 20.9C78.6794 20.62 79.118 20.3773 79.6407 20.172C80.1727 19.9667 80.7747 19.864 81.4467 19.864C82.492 19.864 83.2667 20.0973 83.7707 20.564C84.284 21.0307 84.5407 21.6233 84.5407 22.342Z" fill="#D5D8F1"/>
<path d="M12.9099 43.988C12.9099 45.0613 12.7979 45.9853 12.5739 46.76C12.3499 47.5253 11.9953 48.1133 11.5099 48.524C11.0246 48.9347 10.3806 49.14 9.57792 49.14C8.44859 49.14 7.61326 48.6873 7.07192 47.782C6.53992 46.8673 6.27392 45.6027 6.27392 43.988C6.27392 42.9053 6.38126 41.9813 6.59592 41.216C6.81992 40.4507 7.17459 39.8673 7.65992 39.466C8.14526 39.0553 8.78459 38.85 9.57792 38.85C10.6979 38.85 11.5333 39.3027 12.0839 40.208C12.6346 41.104 12.9099 42.364 12.9099 43.988ZM7.50592 43.988C7.50592 45.36 7.65992 46.3867 7.96792 47.068C8.28526 47.7493 8.82192 48.09 9.57792 48.09C10.3246 48.09 10.8566 47.754 11.1739 47.082C11.5006 46.4007 11.6639 45.3693 11.6639 43.988C11.6639 42.6253 11.5006 41.6033 11.1739 40.922C10.8566 40.2407 10.3246 39.9 9.57792 39.9C8.82192 39.9 8.28526 40.2407 7.96792 40.922C7.65992 41.6033 7.50592 42.6253 7.50592 43.988Z" fill="#D5D8F1"/>
<path d="M21.3276 46.732H19.8716V49H18.6816V46.732H13.8936V45.682L18.5976 38.948H19.8716V45.626H21.3276V46.732ZM18.6816 45.626V42.476C18.6816 41.9907 18.691 41.58 18.7096 41.244C18.7283 40.8987 18.7423 40.572 18.7516 40.264H18.6956C18.621 40.4413 18.5276 40.6327 18.4156 40.838C18.3036 41.0433 18.1963 41.216 18.0936 41.356L15.0976 45.626H18.6816Z" fill="#D5D8F1"/>
<path d="M26.5814 49H25.3774V42.014C25.3774 41.6127 25.382 41.2907 25.3914 41.048C25.4007 40.8053 25.4147 40.5533 25.4334 40.292C25.284 40.4413 25.1487 40.5673 25.0274 40.67C24.906 40.7727 24.752 40.9033 24.5654 41.062L23.5014 41.93L22.8574 41.104L25.5594 39.004H26.5814V49Z" fill="#D5D8F1"/>
<path d="M31.5271 49L35.6291 40.124H30.2391V39.004H36.9451V39.956L32.8851 49H31.5271Z" fill="#D5D8F1"/>
<path d="M39.5388 49L43.6408 40.124H38.2508V39.004H44.9568V39.956L40.8968 49H39.5388Z" fill="#D5D8F1"/>
<path d="M50.6412 49V39.004H51.9012V47.88H56.2692V49H50.6412Z" fill="#D5D8F1"/>
<path d="M60.713 41.356C61.357 41.356 61.9077 41.496 62.365 41.776C62.8317 42.056 63.1864 42.4527 63.429 42.966C63.681 43.47 63.807 44.0627 63.807 44.744V45.486H58.669C58.6877 46.3353 58.9024 46.984 59.313 47.432C59.733 47.8707 60.3164 48.09 61.063 48.09C61.539 48.09 61.959 48.048 62.323 47.964C62.6964 47.8707 63.079 47.74 63.471 47.572V48.65C63.0884 48.818 62.7104 48.9393 62.337 49.014C61.9637 49.098 61.5204 49.14 61.007 49.14C60.2977 49.14 59.6677 48.9953 59.117 48.706C58.5757 48.4167 58.151 47.9873 57.843 47.418C57.5444 46.8393 57.395 46.1347 57.395 45.304C57.395 44.4827 57.5304 43.778 57.801 43.19C58.081 42.602 58.4684 42.1493 58.963 41.832C59.467 41.5147 60.0504 41.356 60.713 41.356ZM60.699 42.364C60.111 42.364 59.6444 42.5553 59.299 42.938C58.963 43.3113 58.7624 43.834 58.697 44.506H62.519C62.5097 43.8713 62.3604 43.358 62.071 42.966C61.7817 42.5647 61.3244 42.364 60.699 42.364Z" fill="#D5D8F1"/>
<path d="M66.3474 38.682C66.534 38.682 66.6974 38.7473 66.8374 38.878C66.9867 38.9993 67.0614 39.1953 67.0614 39.466C67.0614 39.7273 66.9867 39.9233 66.8374 40.054C66.6974 40.1847 66.534 40.25 66.3474 40.25C66.142 40.25 65.9694 40.1847 65.8294 40.054C65.6894 39.9233 65.6194 39.7273 65.6194 39.466C65.6194 39.1953 65.6894 38.9993 65.8294 38.878C65.9694 38.7473 66.142 38.682 66.3474 38.682ZM66.9494 41.496V49H65.7174V41.496H66.9494Z" fill="#D5D8F1"/>
<path d="M72.8968 41.356C73.8208 41.356 74.5627 41.678 75.1227 42.322C75.6921 42.966 75.9768 43.9367 75.9768 45.234C75.9768 46.5127 75.6921 47.4833 75.1227 48.146C74.5627 48.8087 73.8161 49.14 72.8828 49.14C72.3041 49.14 71.8234 49.0327 71.4408 48.818C71.0674 48.594 70.7734 48.3373 70.5588 48.048H70.4748C70.4934 48.2067 70.5121 48.4073 70.5308 48.65C70.5494 48.8927 70.5588 49.1027 70.5588 49.28V52.36H69.3268V41.496H70.3347L70.5028 42.518H70.5588C70.7828 42.1913 71.0768 41.916 71.4408 41.692C71.8048 41.468 72.2901 41.356 72.8968 41.356ZM72.6728 42.392C71.9074 42.392 71.3661 42.6067 71.0488 43.036C70.7408 43.4653 70.5774 44.1187 70.5588 44.996V45.234C70.5588 46.158 70.7081 46.872 71.0068 47.376C71.3148 47.8707 71.8794 48.118 72.7008 48.118C73.1581 48.118 73.5314 47.992 73.8208 47.74C74.1194 47.488 74.3388 47.1473 74.4788 46.718C74.6281 46.2793 74.7028 45.78 74.7028 45.22C74.7028 44.3613 74.5348 43.6753 74.1988 43.162C73.8721 42.6487 73.3634 42.392 72.6728 42.392Z" fill="#D5D8F1"/>
<path d="M82.6473 49H77.1593V48.188L81.1913 42.448H77.3973V41.496H82.5493V42.42L78.5733 48.048H82.6473V49Z" fill="#D5D8F1"/>
<path d="M85.0095 38.682C85.1961 38.682 85.3595 38.7473 85.4995 38.878C85.6488 38.9993 85.7235 39.1953 85.7235 39.466C85.7235 39.7273 85.6488 39.9233 85.4995 40.054C85.3595 40.1847 85.1961 40.25 85.0095 40.25C84.8041 40.25 84.6315 40.1847 84.4915 40.054C84.3515 39.9233 84.2815 39.7273 84.2815 39.466C84.2815 39.1953 84.3515 38.9993 84.4915 38.878C84.6315 38.7473 84.8041 38.682 85.0095 38.682ZM85.6115 41.496V49H84.3795V41.496H85.6115Z" fill="#D5D8F1"/>
<path d="M90.6489 41.356C91.1435 41.356 91.5869 41.4493 91.9789 41.636C92.3802 41.8227 92.7209 42.1073 93.0009 42.49H93.0709L93.2389 41.496H94.2189V49.126C94.2189 50.1993 93.9435 51.0067 93.3929 51.548C92.8515 52.0893 92.0069 52.36 90.8589 52.36C89.7575 52.36 88.8569 52.2013 88.1569 51.884V50.75C88.8942 51.142 89.8182 51.338 90.9289 51.338C91.5729 51.338 92.0769 51.1467 92.4409 50.764C92.8142 50.3907 93.0009 49.8773 93.0009 49.224V48.93C93.0009 48.818 93.0055 48.6593 93.0149 48.454C93.0242 48.2393 93.0335 48.09 93.0429 48.006H92.9869C92.4829 48.762 91.7082 49.14 90.6629 49.14C89.6922 49.14 88.9315 48.7993 88.3809 48.118C87.8395 47.4367 87.5689 46.4847 87.5689 45.262C87.5689 44.0673 87.8395 43.12 88.3809 42.42C88.9315 41.7107 89.6875 41.356 90.6489 41.356ZM90.8169 42.392C90.1915 42.392 89.7062 42.644 89.3609 43.148C89.0155 43.6427 88.8429 44.352 88.8429 45.276C88.8429 46.2 89.0109 46.9093 89.3469 47.404C89.6922 47.8893 90.1915 48.132 90.8449 48.132C91.6009 48.132 92.1515 47.9313 92.4969 47.53C92.8422 47.1193 93.0149 46.4613 93.0149 45.556V45.262C93.0149 44.2353 92.8375 43.5027 92.4829 43.064C92.1282 42.616 91.5729 42.392 90.8169 42.392Z" fill="#D5D8F1"/>
</svg>
