<svg width="105" height="59" viewBox="0 0 105 59" fill="none" xmlns="http://www.w3.org/2000/svg">
<path d="M7.9717 11H6.7117V6.33801H1.5877V11H0.327698V1.00401H1.5877V5.23201H6.7117V1.00401H7.9717V11Z" fill="#D5D8F1"/>
<path d="M13.7147 3.35601C14.3587 3.35601 14.9093 3.49601 15.3666 3.77601C15.8333 4.05601 16.188 4.45268 16.4307 4.96601C16.6827 5.47001 16.8086 6.06268 16.8086 6.74401V7.48601H11.6706C11.6893 8.33534 11.904 8.98401 12.3146 9.43201C12.7346 9.87068 13.318 10.09 14.0646 10.09C14.5406 10.09 14.9607 10.048 15.3246 9.96401C15.698 9.87068 16.0807 9.74001 16.4727 9.57201V10.65C16.09 10.818 15.712 10.9393 15.3386 11.014C14.9653 11.098 14.522 11.14 14.0086 11.14C13.2993 11.14 12.6693 10.9953 12.1186 10.706C11.5773 10.4167 11.1526 9.98734 10.8446 9.41801C10.546 8.83934 10.3966 8.13468 10.3966 7.30401C10.3966 6.48268 10.532 5.77801 10.8026 5.19001C11.0826 4.60201 11.47 4.14934 11.9647 3.83201C12.4687 3.51468 13.052 3.35601 13.7147 3.35601ZM13.7006 4.36401C13.1126 4.36401 12.646 4.55534 12.3006 4.93801C11.9646 5.31134 11.764 5.83401 11.6986 6.50601H15.5206C15.5113 5.87134 15.362 5.35801 15.0726 4.96601C14.7833 4.56468 14.326 4.36401 13.7006 4.36401Z" fill="#D5D8F1"/>
<path d="M22.611 3.35601C23.507 3.35601 24.1837 3.57534 24.641 4.01401C25.0983 4.44334 25.327 5.14334 25.327 6.11401V11H24.109V6.19801C24.109 4.99401 23.549 4.39201 22.429 4.39201C21.5983 4.39201 21.0243 4.62534 20.707 5.09201C20.3897 5.55868 20.231 6.23068 20.231 7.10801V11H18.999V3.49601H19.993L20.175 4.51801H20.245C20.4877 4.12601 20.8237 3.83668 21.253 3.65001C21.6823 3.45401 22.135 3.35601 22.611 3.35601Z" fill="#D5D8F1"/>
<path d="M30.5933 11.14C29.66 11.14 28.9133 10.818 28.3533 10.174C27.7933 9.52068 27.5133 8.55001 27.5133 7.26201C27.5133 5.97401 27.7933 5.00334 28.3533 4.35001C28.9226 3.68734 29.674 3.35601 30.6073 3.35601C31.186 3.35601 31.6573 3.46334 32.0213 3.67801C32.3946 3.89268 32.698 4.15401 32.9313 4.46201H33.0153C33.006 4.34068 32.9873 4.16334 32.9593 3.93001C32.9406 3.68734 32.9313 3.49601 32.9313 3.35601V0.360008H34.1633V11H33.1693L32.9873 9.99201H32.9313C32.7073 10.3093 32.4086 10.58 32.0353 10.804C31.662 11.028 31.1813 11.14 30.5933 11.14ZM30.7893 10.118C31.5826 10.118 32.138 9.90334 32.4553 9.47401C32.782 9.03534 32.9453 8.37734 32.9453 7.50001V7.27601C32.9453 6.34268 32.7913 5.62868 32.4833 5.13401C32.1753 4.63001 31.606 4.37801 30.7753 4.37801C30.1126 4.37801 29.6133 4.64401 29.2773 5.17601C28.9506 5.69868 28.7873 6.40334 28.7873 7.29001C28.7873 8.18601 28.9506 8.88134 29.2773 9.37601C29.6133 9.87068 30.1173 10.118 30.7893 10.118Z" fill="#D5D8F1"/>
<path d="M40.3266 3.35601C40.4666 3.35601 40.6159 3.36534 40.7746 3.38401C40.9426 3.39334 41.0872 3.41201 41.2086 3.44001L41.0546 4.57401C40.9332 4.54601 40.7979 4.52268 40.6486 4.50401C40.5086 4.48534 40.3732 4.47601 40.2426 4.47601C39.8599 4.47601 39.5006 4.58334 39.1646 4.79801C38.8286 5.00334 38.5579 5.29734 38.3526 5.68001C38.1566 6.05334 38.0586 6.49201 38.0586 6.99601V11H36.8266V3.49601H37.8346L37.9746 4.86801H38.0306C38.2732 4.45734 38.5859 4.10268 38.9686 3.80401C39.3512 3.50534 39.8039 3.35601 40.3266 3.35601Z" fill="#D5D8F1"/>
<path d="M43.5198 0.682009C43.7064 0.682009 43.8698 0.747342 44.0098 0.878008C44.1591 0.999342 44.2338 1.19534 44.2338 1.46601C44.2338 1.72734 44.1591 1.92334 44.0098 2.05401C43.8698 2.18468 43.7064 2.25001 43.5198 2.25001C43.3144 2.25001 43.1418 2.18468 43.0018 2.05401C42.8618 1.92334 42.7918 1.72734 42.7918 1.46601C42.7918 1.19534 42.8618 0.999342 43.0018 0.878008C43.1418 0.747342 43.3144 0.682009 43.5198 0.682009ZM44.1218 3.49601V11H42.8898V3.49601H44.1218Z" fill="#D5D8F1"/>
<path d="M47.9972 0.360008V5.91801C47.9972 6.06734 47.9878 6.26334 47.9692 6.50601C47.9598 6.74868 47.9505 6.95868 47.9412 7.13601H47.9972C48.0532 7.06134 48.1372 6.95401 48.2492 6.81401C48.3612 6.67401 48.4732 6.53401 48.5852 6.39401C48.7065 6.24468 48.8092 6.12334 48.8932 6.03001L51.2872 3.49601H52.7292L49.6912 6.70201L52.9392 11H51.4552L48.8512 7.50001L47.9972 8.24201V11H46.7792V0.360008H47.9972Z" fill="#D5D8F1"/>
<path d="M66.5464 11H65.0764L59.7284 2.69801H59.6724C59.691 3.02468 59.7144 3.43068 59.7424 3.91601C59.7704 4.40134 59.7844 4.90068 59.7844 5.41401V11H58.6224V1.00401H60.0784L65.4124 9.27801H65.4684C65.4591 9.12868 65.4451 8.90468 65.4264 8.60601C65.4171 8.30734 65.4031 7.98068 65.3844 7.62601C65.3751 7.27134 65.3704 6.94468 65.3704 6.64601V1.00401H66.5464V11Z" fill="#D5D8F1"/>
<path d="M70.0011 0.682009C70.1878 0.682009 70.3511 0.747342 70.4911 0.878008C70.6404 0.999342 70.7151 1.19534 70.7151 1.46601C70.7151 1.72734 70.6404 1.92334 70.4911 2.05401C70.3511 2.18468 70.1878 2.25001 70.0011 2.25001C69.7958 2.25001 69.6231 2.18468 69.4831 2.05401C69.3431 1.92334 69.2731 1.72734 69.2731 1.46601C69.2731 1.19534 69.3431 0.999342 69.4831 0.878008C69.6231 0.747342 69.7958 0.682009 70.0011 0.682009ZM70.6031 3.49601V11H69.3711V3.49601H70.6031Z" fill="#D5D8F1"/>
<path d="M76.1585 3.35601C76.8025 3.35601 77.3531 3.49601 77.8105 3.77601C78.2771 4.05601 78.6318 4.45268 78.8745 4.96601C79.1265 5.47001 79.2525 6.06268 79.2525 6.74401V7.48601H74.1145C74.1331 8.33534 74.3478 8.98401 74.7585 9.43201C75.1785 9.87068 75.7618 10.09 76.5085 10.09C76.9845 10.09 77.4045 10.048 77.7685 9.96401C78.1418 9.87068 78.5245 9.74001 78.9165 9.57201V10.65C78.5338 10.818 78.1558 10.9393 77.7825 11.014C77.4091 11.098 76.9658 11.14 76.4525 11.14C75.7431 11.14 75.1131 10.9953 74.5625 10.706C74.0211 10.4167 73.5965 9.98734 73.2885 9.41801C72.9898 8.83934 72.8405 8.13468 72.8405 7.30401C72.8405 6.48268 72.9758 5.77801 73.2465 5.19001C73.5265 4.60201 73.9138 4.14934 74.4085 3.83201C74.9125 3.51468 75.4958 3.35601 76.1585 3.35601ZM76.1445 4.36401C75.5565 4.36401 75.0898 4.55534 74.7445 4.93801C74.4085 5.31134 74.2078 5.83401 74.1425 6.50601H77.9645C77.9551 5.87134 77.8058 5.35801 77.5165 4.96601C77.2271 4.56468 76.7698 4.36401 76.1445 4.36401Z" fill="#D5D8F1"/>
<path d="M84.9008 4.44801H83.0108V11H81.7788V4.44801H80.4628V3.87401L81.7788 3.45401V3.02001C81.7788 2.04934 81.9935 1.35401 82.4228 0.934009C82.8521 0.504675 83.4495 0.290009 84.2148 0.290009C84.5135 0.290009 84.7842 0.318008 85.0268 0.374008C85.2788 0.420675 85.4935 0.476676 85.6708 0.542009L85.3488 1.50801C85.1995 1.46134 85.0268 1.41468 84.8308 1.36801C84.6348 1.32134 84.4342 1.29801 84.2288 1.29801C83.8182 1.29801 83.5102 1.43801 83.3048 1.71801C83.1088 1.98868 83.0108 2.41801 83.0108 3.00601V3.49601H84.9008V4.44801Z" fill="#D5D8F1"/>
<path d="M89.4333 3.35601C90.0773 3.35601 90.628 3.49601 91.0853 3.77601C91.552 4.05601 91.9066 4.45268 92.1493 4.96601C92.4013 5.47001 92.5273 6.06268 92.5273 6.74401V7.48601H87.3893C87.408 8.33534 87.6227 8.98401 88.0333 9.43201C88.4533 9.87068 89.0367 10.09 89.7833 10.09C90.2593 10.09 90.6793 10.048 91.0433 9.96401C91.4166 9.87068 91.7993 9.74001 92.1913 9.57201V10.65C91.8086 10.818 91.4307 10.9393 91.0573 11.014C90.684 11.098 90.2407 11.14 89.7273 11.14C89.018 11.14 88.388 10.9953 87.8373 10.706C87.296 10.4167 86.8713 9.98734 86.5633 9.41801C86.2646 8.83934 86.1153 8.13468 86.1153 7.30401C86.1153 6.48268 86.2506 5.77801 86.5213 5.19001C86.8013 4.60201 87.1887 4.14934 87.6833 3.83201C88.1873 3.51468 88.7707 3.35601 89.4333 3.35601ZM89.4193 4.36401C88.8313 4.36401 88.3647 4.55534 88.0193 4.93801C87.6833 5.31134 87.4826 5.83401 87.4173 6.50601H91.2393C91.23 5.87134 91.0806 5.35801 90.7913 4.96601C90.502 4.56468 90.0447 4.36401 89.4193 4.36401Z" fill="#D5D8F1"/>
<path d="M95.9497 11H94.7177V0.360008H95.9497V11Z" fill="#D5D8F1"/>
<path d="M101.267 11.14C100.334 11.14 99.587 10.818 99.027 10.174C98.467 9.52068 98.187 8.55001 98.187 7.26201C98.187 5.97401 98.467 5.00334 99.027 4.35001C99.5964 3.68734 100.348 3.35601 101.281 3.35601C101.86 3.35601 102.331 3.46334 102.695 3.67801C103.068 3.89268 103.372 4.15401 103.605 4.46201H103.689C103.68 4.34068 103.661 4.16334 103.633 3.93001C103.614 3.68734 103.605 3.49601 103.605 3.35601V0.360008H104.837V11H103.843L103.661 9.99201H103.605C103.381 10.3093 103.082 10.58 102.709 10.804C102.336 11.028 101.855 11.14 101.267 11.14ZM101.463 10.118C102.256 10.118 102.812 9.90334 103.129 9.47401C103.456 9.03534 103.619 8.37734 103.619 7.50001V7.27601C103.619 6.34268 103.465 5.62868 103.157 5.13401C102.849 4.63001 102.28 4.37801 101.449 4.37801C100.786 4.37801 100.287 4.64401 99.951 5.17601C99.6244 5.69868 99.461 6.40334 99.461 7.29001C99.461 8.18601 99.6244 8.88134 99.951 9.37601C100.287 9.87068 100.791 10.118 101.463 10.118Z" fill="#D5D8F1"/>
<path d="M21.6476 27.722H25.1056V32.622C24.5643 32.7993 24.0183 32.93 23.4676 33.014C22.917 33.098 22.2916 33.14 21.5916 33.14C20.5556 33.14 19.683 32.9347 18.9736 32.524C18.2643 32.104 17.723 31.5113 17.3496 30.746C16.9856 29.9713 16.8036 29.0567 16.8036 28.002C16.8036 26.9567 17.009 26.0513 17.4196 25.286C17.8303 24.5207 18.4183 23.928 19.1836 23.508C19.9583 23.0787 20.8916 22.864 21.9836 22.864C22.5436 22.864 23.0709 22.9153 23.5656 23.018C24.0696 23.1207 24.5363 23.2653 24.9656 23.452L24.4896 24.544C24.1349 24.3853 23.7336 24.25 23.2856 24.138C22.847 24.026 22.3896 23.97 21.9136 23.97C20.719 23.97 19.7856 24.3293 19.1136 25.048C18.451 25.7667 18.1196 26.7513 18.1196 28.002C18.1196 28.7953 18.2456 29.5 18.4976 30.116C18.759 30.7227 19.165 31.1987 19.7156 31.544C20.2663 31.88 20.9896 32.048 21.8856 32.048C22.3243 32.048 22.6976 32.0247 23.0056 31.978C23.3136 31.9313 23.5936 31.8753 23.8456 31.81V28.842H21.6476V27.722Z" fill="#D5D8F1"/>
<path d="M34.1292 29.234C34.1292 30.4753 33.8118 31.4367 33.1772 32.118C32.5518 32.7993 31.7025 33.14 30.6292 33.14C29.9665 33.14 29.3738 32.9907 28.8512 32.692C28.3378 32.384 27.9318 31.9407 27.6332 31.362C27.3345 30.774 27.1852 30.0647 27.1852 29.234C27.1852 27.9927 27.4978 27.036 28.1232 26.364C28.7485 25.692 29.5978 25.356 30.6712 25.356C31.3525 25.356 31.9498 25.51 32.4632 25.818C32.9858 26.1167 33.3918 26.5553 33.6812 27.134C33.9798 27.7033 34.1292 28.4033 34.1292 29.234ZM28.4592 29.234C28.4592 30.1207 28.6318 30.8253 28.9772 31.348C29.3318 31.8613 29.8918 32.118 30.6572 32.118C31.4132 32.118 31.9685 31.8613 32.3232 31.348C32.6778 30.8253 32.8552 30.1207 32.8552 29.234C32.8552 28.3473 32.6778 27.652 32.3232 27.148C31.9685 26.644 31.4085 26.392 30.6432 26.392C29.8778 26.392 29.3225 26.644 28.9772 27.148C28.6318 27.652 28.4592 28.3473 28.4592 29.234Z" fill="#D5D8F1"/>
<path d="M39.2597 25.356C39.9037 25.356 40.4544 25.496 40.9117 25.776C41.3784 26.056 41.7331 26.4527 41.9757 26.966C42.2277 27.47 42.3537 28.0627 42.3537 28.744V29.486H37.2157C37.2344 30.3353 37.4491 30.984 37.8597 31.432C38.2797 31.8707 38.8631 32.09 39.6097 32.09C40.0857 32.09 40.5057 32.048 40.8697 31.964C41.2431 31.8707 41.6257 31.74 42.0177 31.572V32.65C41.6351 32.818 41.2571 32.9393 40.8837 33.014C40.5104 33.098 40.0671 33.14 39.5537 33.14C38.8444 33.14 38.2144 32.9953 37.6637 32.706C37.1224 32.4167 36.6977 31.9873 36.3897 31.418C36.0911 30.8393 35.9417 30.1347 35.9417 29.304C35.9417 28.4827 36.0771 27.778 36.3477 27.19C36.6277 26.602 37.0151 26.1493 37.5097 25.832C38.0137 25.5147 38.5971 25.356 39.2597 25.356ZM39.2457 26.364C38.6577 26.364 38.1911 26.5553 37.8457 26.938C37.5097 27.3113 37.3091 27.834 37.2437 28.506H41.0657C41.0564 27.8713 40.9071 27.358 40.6177 26.966C40.3284 26.5647 39.8711 26.364 39.2457 26.364Z" fill="#D5D8F1"/>
<path d="M47.0501 32.132C47.2367 32.132 47.4281 32.118 47.6241 32.09C47.8201 32.0527 47.9787 32.0153 48.1001 31.978V32.916C47.9694 32.9813 47.7827 33.0327 47.5401 33.07C47.2974 33.1167 47.0641 33.14 46.8401 33.14C46.4481 33.14 46.0841 33.0747 45.7481 32.944C45.4214 32.804 45.1554 32.566 44.9501 32.23C44.7447 31.894 44.6421 31.4227 44.6421 30.816V26.448H43.5781V25.86L44.6561 25.37L45.1461 23.774H45.8741V25.496H48.0441V26.448H45.8741V30.788C45.8741 31.2453 45.9814 31.586 46.1961 31.81C46.4201 32.0247 46.7047 32.132 47.0501 32.132Z" fill="#D5D8F1"/>
<path d="M54.7267 33H49.2387V32.188L53.2707 26.448H49.4767V25.496H54.6287V26.42L50.6527 32.048H54.7267V33Z" fill="#D5D8F1"/>
<path d="M61.6248 30.928C61.6248 31.656 61.3542 32.2067 60.8128 32.58C60.2715 32.9533 59.5435 33.14 58.6288 33.14C58.1062 33.14 57.6535 33.098 57.2708 33.014C56.8975 32.93 56.5662 32.8133 56.2768 32.664V31.544C56.5755 31.6933 56.9348 31.8333 57.3548 31.964C57.7842 32.0853 58.2182 32.146 58.6568 32.146C59.2822 32.146 59.7348 32.048 60.0148 31.852C60.2948 31.6467 60.4348 31.376 60.4348 31.04C60.4348 30.8533 60.3835 30.6853 60.2808 30.536C60.1782 30.3867 59.9915 30.2373 59.7208 30.088C59.4595 29.9387 59.0815 29.7707 58.5868 29.584C58.1015 29.3973 57.6862 29.2107 57.3408 29.024C56.9955 28.8373 56.7295 28.6133 56.5428 28.352C56.3562 28.0907 56.2628 27.7547 56.2628 27.344C56.2628 26.7093 56.5195 26.2193 57.0328 25.874C57.5555 25.5287 58.2368 25.356 59.0768 25.356C59.5342 25.356 59.9588 25.4027 60.3508 25.496C60.7522 25.58 61.1255 25.7013 61.4708 25.86L61.0508 26.84C60.7335 26.7093 60.4022 26.5973 60.0568 26.504C59.7115 26.4107 59.3568 26.364 58.9928 26.364C58.4888 26.364 58.1015 26.448 57.8308 26.616C57.5695 26.7747 57.4388 26.994 57.4388 27.274C57.4388 27.4793 57.4995 27.6567 57.6208 27.806C57.7422 27.946 57.9428 28.086 58.2228 28.226C58.5122 28.3567 58.8948 28.5153 59.3708 28.702C59.8468 28.8793 60.2528 29.0613 60.5888 29.248C60.9248 29.4347 61.1815 29.6633 61.3588 29.934C61.5362 30.1953 61.6248 30.5267 61.6248 30.928Z" fill="#D5D8F1"/>
<path d="M66.2241 32.132C66.4107 32.132 66.6021 32.118 66.7981 32.09C66.9941 32.0527 67.1527 32.0153 67.2741 31.978V32.916C67.1434 32.9813 66.9567 33.0327 66.7141 33.07C66.4714 33.1167 66.2381 33.14 66.0141 33.14C65.6221 33.14 65.2581 33.0747 64.9221 32.944C64.5954 32.804 64.3294 32.566 64.1241 32.23C63.9187 31.894 63.8161 31.4227 63.8161 30.816V26.448H62.7521V25.86L63.8301 25.37L64.3201 23.774H65.0481V25.496H67.2181V26.448H65.0481V30.788C65.0481 31.2453 65.1554 31.586 65.3701 31.81C65.5941 32.0247 65.8787 32.132 66.2241 32.132Z" fill="#D5D8F1"/>
<path d="M72.5566 25.356C72.6966 25.356 72.846 25.3653 73.0046 25.384C73.1726 25.3933 73.3173 25.412 73.4386 25.44L73.2846 26.574C73.1633 26.546 73.028 26.5227 72.8786 26.504C72.7386 26.4853 72.6033 26.476 72.4726 26.476C72.09 26.476 71.7306 26.5833 71.3946 26.798C71.0586 27.0033 70.788 27.2973 70.5826 27.68C70.3866 28.0533 70.2887 28.492 70.2887 28.996V33H69.0566V25.496H70.0646L70.2047 26.868H70.2607C70.5033 26.4573 70.816 26.1027 71.1986 25.804C71.5813 25.5053 72.034 25.356 72.5566 25.356Z" fill="#D5D8F1"/>
<path d="M74.1039 32.244C74.1039 31.8987 74.1879 31.656 74.3559 31.516C74.5239 31.376 74.7245 31.306 74.9579 31.306C75.2005 31.306 75.4059 31.376 75.5739 31.516C75.7512 31.656 75.8399 31.8987 75.8399 32.244C75.8399 32.58 75.7512 32.8227 75.5739 32.972C75.4059 33.1213 75.2005 33.196 74.9579 33.196C74.7245 33.196 74.5239 33.1213 74.3559 32.972C74.1879 32.8227 74.1039 32.58 74.1039 32.244Z" fill="#D5D8F1"/>
<path d="M87.9407 25.342C87.9407 26.014 87.754 26.5507 87.3807 26.952C87.0073 27.344 86.5033 27.6053 85.8687 27.736V27.792C86.6713 27.8853 87.2687 28.1373 87.6607 28.548C88.0527 28.9587 88.2487 29.4953 88.2487 30.158C88.2487 30.7367 88.1133 31.2547 87.8427 31.712C87.572 32.16 87.152 32.51 86.5827 32.762C86.0227 33.014 85.2993 33.14 84.4127 33.14C83.89 33.14 83.4047 33.098 82.9567 33.014C82.5087 32.9393 82.0793 32.7993 81.6687 32.594V31.446C82.0887 31.6513 82.5413 31.8147 83.0267 31.936C83.512 32.048 83.9787 32.104 84.4267 32.104C85.3227 32.104 85.9667 31.9313 86.3587 31.586C86.76 31.2313 86.9607 30.746 86.9607 30.13C86.9607 29.5047 86.7133 29.0567 86.2187 28.786C85.7333 28.506 85.0473 28.366 84.1607 28.366H83.1947V27.316H84.1747C84.996 27.316 85.6167 27.1433 86.0367 26.798C86.466 26.4527 86.6807 25.9953 86.6807 25.426C86.6807 24.9407 86.5173 24.5673 86.1907 24.306C85.864 24.0353 85.4207 23.9 84.8607 23.9C84.3193 23.9 83.8573 23.9793 83.4747 24.138C83.092 24.2967 82.714 24.4973 82.3407 24.74L81.7247 23.9C82.0793 23.62 82.518 23.3773 83.0407 23.172C83.5727 22.9667 84.1747 22.864 84.8467 22.864C85.892 22.864 86.6667 23.0973 87.1707 23.564C87.684 24.0307 87.9407 24.6233 87.9407 25.342Z" fill="#D5D8F1"/>
<path d="M13.2299 49.988C13.2299 51.0613 13.1179 51.9853 12.8939 52.76C12.6699 53.5253 12.3152 54.1133 11.8299 54.524C11.3446 54.9347 10.7006 55.14 9.8979 55.14C8.76857 55.14 7.93323 54.6873 7.3919 53.782C6.8599 52.8673 6.5939 51.6027 6.5939 49.988C6.5939 48.9053 6.70123 47.9813 6.9159 47.216C7.1399 46.4507 7.49457 45.8673 7.9799 45.466C8.46523 45.0553 9.10457 44.85 9.8979 44.85C11.0179 44.85 11.8532 45.3027 12.4039 46.208C12.9546 47.104 13.2299 48.364 13.2299 49.988ZM7.8259 49.988C7.8259 51.36 7.9799 52.3867 8.2879 53.068C8.60523 53.7493 9.1419 54.09 9.8979 54.09C10.6446 54.09 11.1766 53.754 11.4939 53.082C11.8206 52.4007 11.9839 51.3693 11.9839 49.988C11.9839 48.6253 11.8206 47.6033 11.4939 46.922C11.1766 46.2407 10.6446 45.9 9.8979 45.9C9.1419 45.9 8.60523 46.2407 8.2879 46.922C7.9799 47.6033 7.8259 48.6253 7.8259 49.988Z" fill="#D5D8F1"/>
<path d="M21.9276 52.732H20.4716V55H19.2816V52.732H14.4936V51.682L19.1976 44.948H20.4716V51.626H21.9276V52.732ZM19.2816 51.626V48.476C19.2816 47.9907 19.291 47.58 19.3096 47.244C19.3283 46.8987 19.3423 46.572 19.3516 46.264H19.2956C19.221 46.4413 19.1276 46.6327 19.0156 46.838C18.9036 47.0433 18.7963 47.216 18.6936 47.356L15.6976 51.626H19.2816Z" fill="#D5D8F1"/>
<path d="M27.4613 55H26.2573V48.014C26.2573 47.6127 26.262 47.2907 26.2713 47.048C26.2807 46.8053 26.2947 46.5533 26.3133 46.292C26.164 46.4413 26.0287 46.5673 25.9073 46.67C25.786 46.7727 25.632 46.9033 25.4453 47.062L24.3813 47.93L23.7373 47.104L26.4393 45.004H27.4613V55Z" fill="#D5D8F1"/>
<path d="M32.6871 55L36.7891 46.124H31.3991V45.004H38.1051V45.956L34.0451 55H32.6871Z" fill="#D5D8F1"/>
<path d="M40.9788 55L45.0808 46.124H39.6908V45.004H46.3968V45.956L42.3368 55H40.9788Z" fill="#D5D8F1"/>
<path d="M52.6412 55V45.004H53.9012V53.88H58.2692V55H52.6412Z" fill="#D5D8F1"/>
<path d="M62.993 47.356C63.637 47.356 64.1877 47.496 64.645 47.776C65.1117 48.056 65.4663 48.4527 65.709 48.966C65.961 49.47 66.087 50.0627 66.087 50.744V51.486H60.949C60.9677 52.3353 61.1823 52.984 61.593 53.432C62.013 53.8707 62.5963 54.09 63.343 54.09C63.819 54.09 64.239 54.048 64.603 53.964C64.9763 53.8707 65.359 53.74 65.751 53.572V54.65C65.3683 54.818 64.9903 54.9393 64.617 55.014C64.2437 55.098 63.8003 55.14 63.287 55.14C62.5777 55.14 61.9477 54.9953 61.397 54.706C60.8557 54.4167 60.431 53.9873 60.123 53.418C59.8243 52.8393 59.675 52.1347 59.675 51.304C59.675 50.4827 59.8103 49.778 60.081 49.19C60.361 48.602 60.7483 48.1493 61.243 47.832C61.747 47.5147 62.3303 47.356 62.993 47.356ZM62.979 48.364C62.391 48.364 61.9243 48.5553 61.579 48.938C61.243 49.3113 61.0423 49.834 60.977 50.506H64.799C64.7897 49.8713 64.6403 49.358 64.351 48.966C64.0617 48.5647 63.6043 48.364 62.979 48.364Z" fill="#D5D8F1"/>
<path d="M68.9073 44.682C69.094 44.682 69.2574 44.7473 69.3974 44.878C69.5467 44.9993 69.6214 45.1953 69.6214 45.466C69.6214 45.7273 69.5467 45.9233 69.3974 46.054C69.2574 46.1847 69.094 46.25 68.9073 46.25C68.702 46.25 68.5294 46.1847 68.3894 46.054C68.2494 45.9233 68.1794 45.7273 68.1794 45.466C68.1794 45.1953 68.2494 44.9993 68.3894 44.878C68.5294 44.7473 68.702 44.682 68.9073 44.682ZM69.5094 47.496V55H68.2774V47.496H69.5094Z" fill="#D5D8F1"/>
<path d="M75.7367 47.356C76.6607 47.356 77.4027 47.678 77.9627 48.322C78.5321 48.966 78.8167 49.9367 78.8167 51.234C78.8167 52.5127 78.5321 53.4833 77.9627 54.146C77.4027 54.8087 76.6561 55.14 75.7227 55.14C75.1441 55.14 74.6634 55.0327 74.2807 54.818C73.9074 54.594 73.6134 54.3373 73.3987 54.048H73.3147C73.3334 54.2067 73.3521 54.4073 73.3707 54.65C73.3894 54.8927 73.3987 55.1027 73.3987 55.28V58.36H72.1667V47.496H73.1747L73.3427 48.518H73.3987C73.6227 48.1913 73.9167 47.916 74.2807 47.692C74.6447 47.468 75.1301 47.356 75.7367 47.356ZM75.5127 48.392C74.7474 48.392 74.2061 48.6067 73.8887 49.036C73.5807 49.4653 73.4174 50.1187 73.3987 50.996V51.234C73.3987 52.158 73.5481 52.872 73.8467 53.376C74.1547 53.8707 74.7194 54.118 75.5407 54.118C75.9981 54.118 76.3714 53.992 76.6607 53.74C76.9594 53.488 77.1787 53.1473 77.3187 52.718C77.4681 52.2793 77.5427 51.78 77.5427 51.22C77.5427 50.3613 77.3747 49.6753 77.0387 49.162C76.7121 48.6487 76.2034 48.392 75.5127 48.392Z" fill="#D5D8F1"/>
<path d="M85.7673 55H80.2793V54.188L84.3113 48.448H80.5173V47.496H85.6693V48.42L81.6933 54.048H85.7673V55Z" fill="#D5D8F1"/>
<path d="M88.4095 44.682C88.5961 44.682 88.7595 44.7473 88.8995 44.878C89.0488 44.9993 89.1235 45.1953 89.1235 45.466C89.1235 45.7273 89.0488 45.9233 88.8995 46.054C88.7595 46.1847 88.5961 46.25 88.4095 46.25C88.2041 46.25 88.0315 46.1847 87.8915 46.054C87.7515 45.9233 87.6815 45.7273 87.6815 45.466C87.6815 45.1953 87.7515 44.9993 87.8915 44.878C88.0315 44.7473 88.2041 44.682 88.4095 44.682ZM89.0115 47.496V55H87.7795V47.496H89.0115Z" fill="#D5D8F1"/>
<path d="M94.3288 47.356C94.8235 47.356 95.2668 47.4493 95.6588 47.636C96.0602 47.8227 96.4008 48.1073 96.6808 48.49H96.7508L96.9188 47.496H97.8988V55.126C97.8988 56.1993 97.6235 57.0067 97.0728 57.548C96.5315 58.0893 95.6868 58.36 94.5388 58.36C93.4375 58.36 92.5368 58.2013 91.8368 57.884V56.75C92.5742 57.142 93.4982 57.338 94.6088 57.338C95.2528 57.338 95.7568 57.1467 96.1208 56.764C96.4942 56.3907 96.6808 55.8773 96.6808 55.224V54.93C96.6808 54.818 96.6855 54.6593 96.6948 54.454C96.7042 54.2393 96.7135 54.09 96.7228 54.006H96.6668C96.1628 54.762 95.3882 55.14 94.3428 55.14C93.3722 55.14 92.6115 54.7993 92.0608 54.118C91.5195 53.4367 91.2488 52.4847 91.2488 51.262C91.2488 50.0673 91.5195 49.12 92.0608 48.42C92.6115 47.7107 93.3675 47.356 94.3288 47.356ZM94.4968 48.392C93.8715 48.392 93.3862 48.644 93.0408 49.148C92.6955 49.6427 92.5228 50.352 92.5228 51.276C92.5228 52.2 92.6908 52.9093 93.0268 53.404C93.3722 53.8893 93.8715 54.132 94.5248 54.132C95.2808 54.132 95.8315 53.9313 96.1768 53.53C96.5222 53.1193 96.6948 52.4613 96.6948 51.556V51.262C96.6948 50.2353 96.5175 49.5027 96.1628 49.064C95.8082 48.616 95.2528 48.392 94.4968 48.392Z" fill="#D5D8F1"/>
</svg>
