<svg width="121" height="57" viewBox="0 0 121 57" fill="none" xmlns="http://www.w3.org/2000/svg">
<path d="M0 43.0637V3.53714C0 2.61349 0.542837 1.85284 1.62853 1.25518C2.71422 0.603196 3.90849 0.277217 5.21132 0.277217C6.62273 0.277217 7.84413 0.603196 8.87554 1.25518C9.96124 1.85284 10.5041 2.61349 10.5041 3.53714V17.5548H20.1125C20.9268 17.5548 21.5782 17.9351 22.0667 18.6958C22.5553 19.4564 22.7996 20.3529 22.7996 21.3852C22.7996 22.4175 22.5553 23.314 22.0667 24.0747C21.5782 24.8353 20.9268 25.2157 20.1125 25.2157H10.5041V43.0637C10.5041 44.6394 10.8298 45.7532 11.4812 46.4052C12.1869 47.0571 13.3812 47.3831 15.064 47.3831H18.2397C19.6511 47.3831 20.7367 47.8178 21.4967 48.6871C22.311 49.5564 22.7181 50.5887 22.7181 51.784C22.7181 53.0337 22.311 54.0931 21.4967 54.9624C20.7367 55.8318 19.6511 56.2664 18.2397 56.2664H15.064C5.02133 56.2664 0 51.8655 0 43.0637Z" fill="white"/>
<path d="M26.1101 46.2421C26.1101 41.7869 27.7386 38.6628 30.9957 36.8699C34.2528 35.0769 38.9484 34.1804 45.0826 34.1804H48.3397V33.0395C48.3397 31.0292 47.7426 29.2905 46.5483 27.8236C45.4083 26.3023 43.6169 25.5416 41.1741 25.5416C38.7313 25.5416 36.6413 25.9763 34.9042 26.8456C33.2214 27.7149 32.2443 28.1496 31.9728 28.1496C30.8871 28.1496 29.9914 27.6062 29.2857 26.5196C28.6343 25.433 28.3086 24.2105 28.3086 22.8522C28.3086 21.2766 29.72 19.9183 32.5428 18.7773C35.3656 17.6363 38.3241 17.0658 41.4184 17.0658C47.1183 17.0658 51.3525 19.1848 54.121 23.4227C57.4324 19.1848 61.4494 17.0658 66.1722 17.0658C70.7321 17.0658 74.6678 18.5056 77.9792 21.3852C81.3448 24.2105 83.0276 27.9594 83.0276 32.632C83.0276 34.2076 82.8376 35.4844 82.4576 36.4624C82.0776 37.4404 81.4805 38.1467 80.6662 38.5813C79.9062 39.016 79.1463 39.3148 78.3863 39.4778C77.6263 39.5865 76.622 39.6409 75.3735 39.6409H58.9252V40.8633C58.9252 43.1996 59.7938 45.1012 61.5309 46.5682C63.3223 47.9808 65.6022 48.6871 68.3707 48.6871C70.3793 48.6871 72.415 48.171 74.4778 47.1387C76.5406 46.1064 77.8706 45.5902 78.4677 45.5902C79.6077 45.5902 80.5305 46.1336 81.2362 47.2202C81.9962 48.2525 82.3762 49.2576 82.3762 50.2356C82.3762 51.8113 80.9377 53.3325 78.0606 54.7995C75.2378 56.2665 71.845 57 67.8822 57C61.368 57 56.3467 54.392 52.8182 49.1761C50.9182 51.6211 48.6925 53.5499 46.1412 54.9625C43.6441 56.3208 41.1198 57 38.5684 57C34.9856 57 32 56.0763 29.6115 54.229C27.2772 52.3818 26.1101 49.7194 26.1101 46.2421ZM36.6142 44.8567C36.6142 46.2693 36.9942 47.356 37.7542 48.1166C38.5684 48.8229 39.627 49.1761 40.9298 49.1761C42.6669 49.1761 44.3226 48.3611 45.8969 46.7311C47.5254 45.1012 48.3397 43.3082 48.3397 41.3523V39.6408H47.1183C45.0012 39.6408 43.2641 39.7495 41.9069 39.9668C40.5498 40.1299 39.3284 40.6189 38.2427 41.4338C37.157 42.2487 36.6142 43.3897 36.6142 44.8567ZM58.9252 33.4469H70.8136C71.7364 33.4469 72.3607 33.3111 72.6864 33.0395C73.0121 32.7135 73.1749 32.143 73.1749 31.328C73.1749 29.4264 72.4692 27.8779 71.0578 26.6826C69.7007 25.433 68.0179 24.8082 66.0094 24.8082C64.0551 24.8082 62.3723 25.4058 60.9609 26.6011C59.6038 27.7421 58.9252 29.2634 58.9252 31.165V33.4469Z" fill="white"/>
<path d="M90.0341 52.925V3.25994C90.0341 2.28197 90.4956 1.49414 91.4184 0.896503C92.3955 0.29884 93.6712 1.90135e-05 95.2455 1.90135e-05C96.7112 1.90135e-05 97.9597 0.29884 98.9911 0.896503C100.023 1.49414 100.538 2.28197 100.538 3.25994V52.925C100.538 53.74 99.9954 54.5007 98.9097 55.207C97.8783 55.9133 96.6569 56.2664 95.2455 56.2664C93.7798 56.2664 92.5313 55.9404 91.4999 55.2884C90.5227 54.5821 90.0341 53.7943 90.0341 52.925Z" fill="white"/>
<path d="M110.073 52.925V3.25992C110.073 2.28195 110.534 1.49412 111.457 0.896484C112.434 0.298821 113.71 0 115.284 0C116.75 0 117.998 0.298821 119.03 0.896484C120.061 1.49412 120.577 2.28195 120.577 3.25992V52.925C120.577 53.74 120.034 54.5007 118.948 55.207C117.917 55.9133 116.696 56.2664 115.284 56.2664C113.819 56.2664 112.57 55.9404 111.539 55.2884C110.561 54.5821 110.073 53.7943 110.073 52.925Z" fill="white"/>
</svg>
