<svg width="161" height="76" viewBox="0 0 161 76" fill="none" xmlns="http://www.w3.org/2000/svg">
<path d="M0.234711 57.2285V5.21979C0.234711 4.00447 0.95503 3.0036 2.3957 2.21721C3.83636 1.35934 5.42109 0.930417 7.14989 0.930417C9.02276 0.930417 10.6435 1.35934 12.0121 2.21721C13.4528 3.0036 14.1732 4.00447 14.1732 5.21979V23.6641H26.923C28.0035 23.6641 28.8679 24.1645 29.5162 25.1654C30.1645 26.1662 30.4887 27.3458 30.4887 28.7041C30.4887 30.0624 30.1645 31.242 29.5162 32.2428C28.8679 33.2437 28.0035 33.7441 26.923 33.7441H14.1732V57.2285C14.1732 59.3017 14.6053 60.7672 15.4697 61.6251C16.4062 62.4829 17.9909 62.9119 20.2239 62.9119H24.4379C26.3107 62.9119 27.7514 63.4838 28.7599 64.6276C29.8404 65.7714 30.3806 67.1298 30.3806 68.7025C30.3806 70.3468 29.8404 71.7409 28.7599 72.8847C27.7514 74.0285 26.3107 74.6004 24.4379 74.6004H20.2239C6.89778 74.6004 0.234711 68.8098 0.234711 57.2285Z" fill="white"/>
<path d="M34.8816 61.4106C34.8816 55.5484 37.0426 51.4378 41.3646 49.0786C45.6866 46.7195 51.9175 45.5399 60.0572 45.5399H64.3792V44.0386C64.3792 41.3935 63.5869 39.1058 62.0021 37.1756C60.4894 35.1739 58.1123 34.1731 54.8708 34.1731C51.6293 34.1731 48.856 34.745 46.551 35.8888C44.3179 37.0327 43.0213 37.6046 42.6612 37.6046C41.2205 37.6046 40.032 36.8897 39.0955 35.4599C38.2311 34.0301 37.7989 32.4216 37.7989 30.6343C37.7989 28.5611 39.6718 26.7739 43.4175 25.2726C47.1633 23.7713 51.0891 23.0207 55.195 23.0207C62.7585 23.0207 68.3771 25.8088 72.0508 31.385C76.4448 25.8088 81.7753 23.0207 88.0422 23.0207C94.093 23.0207 99.3154 24.9152 103.709 28.7041C108.175 32.4216 110.409 37.3544 110.409 43.5025C110.409 45.5757 110.156 47.2557 109.652 48.5425C109.148 49.8293 108.356 50.7586 107.275 51.3306C106.267 51.9025 105.258 52.2957 104.25 52.5101C103.241 52.6532 101.909 52.7247 100.252 52.7247H78.4257V54.3332C78.4257 57.4073 79.5782 59.9094 81.8833 61.8396C84.2604 63.6984 87.2858 64.6277 90.9595 64.6277C93.6247 64.6277 96.326 63.9485 99.0633 62.5903C101.801 61.232 103.565 60.5528 104.358 60.5528C105.87 60.5528 107.095 61.2677 108.031 62.6975C109.04 64.0558 109.544 65.3783 109.544 66.6652C109.544 68.7384 107.635 70.7401 103.817 72.6703C100.072 74.6005 95.5696 75.5657 90.3112 75.5657C81.6672 75.5657 75.0041 72.1341 70.322 65.2711C67.8008 68.4881 64.8474 71.026 61.4619 72.8848C58.1483 74.672 54.7988 75.5657 51.4132 75.5657C46.659 75.5657 42.6972 74.3503 39.5277 71.9197C36.4303 69.489 34.8816 65.9859 34.8816 61.4106ZM48.82 59.5876C48.82 61.4463 49.3242 62.8761 50.3327 63.877C51.4132 64.8063 52.8179 65.271 54.5467 65.271C56.8518 65.271 59.0488 64.1987 61.1377 62.054C63.2987 59.9093 64.3792 57.5501 64.3792 54.9765V52.7246H62.7585C59.9492 52.7246 57.6441 52.8676 55.8433 53.1535C54.0424 53.3681 52.4217 54.0115 50.981 55.0838C49.5404 56.1561 48.82 57.6574 48.82 59.5876ZM78.4257 44.5748H94.201C95.4256 44.5748 96.254 44.3961 96.6862 44.0386C97.1184 43.6097 97.3345 42.859 97.3345 41.7867C97.3345 39.2846 96.398 37.2471 94.5251 35.6743C92.7243 34.0301 90.4913 33.208 87.8261 33.208C85.2329 33.208 82.9998 33.9943 81.127 35.5671C79.3261 37.0684 78.4257 39.0701 78.4257 41.5722V44.5748Z" fill="white"/>
<path d="M119.706 70.2038V4.85506C119.706 3.56825 120.318 2.53164 121.543 1.74527C122.839 0.958869 124.532 0.565684 126.621 0.565684C128.566 0.565684 130.223 0.958869 131.591 1.74527C132.96 2.53164 133.644 3.56825 133.644 4.85506V70.2038C133.644 71.2762 132.924 72.277 131.483 73.2064C130.115 74.1358 128.494 74.6004 126.621 74.6004C124.676 74.6004 123.019 74.1715 121.651 73.3136C120.354 72.3843 119.706 71.3477 119.706 70.2038Z" fill="white"/>
<path d="M146.296 70.2038V4.85503C146.296 3.56822 146.909 2.53161 148.133 1.74524C149.43 0.958844 151.122 0.565659 153.211 0.565659C155.156 0.565659 156.813 0.958844 158.182 1.74524C159.55 2.53161 160.235 3.56822 160.235 4.85503V70.2038C160.235 71.2762 159.514 72.277 158.074 73.2064C156.705 74.1358 155.084 74.6004 153.211 74.6004C151.267 74.6004 149.61 74.1715 148.241 73.3136C146.945 72.3843 146.296 71.3477 146.296 70.2038Z" fill="white"/>
</svg>
